<svg width="51" height="51" fill="none" xmlns="http://www.w3.org/2000/svg"><rect x=".785" y=".576" width="50" height="50" rx="25" fill="#031017"/><g clip-path="url(#a)"><path d="M41.204 9.126H10.332v28.077h30.872V9.126z" fill="#fff"/><path fill-rule="evenodd" clip-rule="evenodd" d="M50.767 25.56c0 13.798-11.185 24.983-24.983 24.983S.801 39.358.801 25.56 11.986.575 25.784.575 50.767 11.762 50.767 25.56zm-32.062 9.942h-4.849c-1.019 0-1.522 0-1.829-.197a1.232 1.232 0 0 1-.558-.963c-.019-.362.233-.804.736-1.688l11.972-21.102c.51-.896.767-1.344 1.092-1.51.35-.178.767-.178 1.117 0 .326.166.583.614 1.093 1.51l2.46 4.296.013.022c.55.961.83 1.449.951 1.96a3.645 3.645 0 0 1 0 1.707c-.122.515-.398 1.006-.957 1.982l-6.289 11.117-.016.028c-.554.97-.834 1.46-1.223 1.831a3.66 3.66 0 0 1-1.492.866c-.51.14-1.08.14-2.221.14zm12.244 0h6.947c1.025 0 1.54 0 1.848-.203.331-.215.54-.577.558-.97.018-.35-.228-.774-.71-1.607l-.05-.086-3.48-5.954-.04-.067c-.49-.827-.736-1.244-1.053-1.406a1.222 1.222 0 0 0-1.111 0c-.32.166-.577.602-1.086 1.48l-3.468 5.953-.012.02c-.508.877-.761 1.314-.743 1.674.025.392.227.755.559.97.3.196.816.196 1.84.196z" fill="#E84142"/></g><defs><clipPath id="a"><path fill="#fff" transform="translate(.785 .543)" d="M0 0h50v50.033H0z"/></clipPath></defs></svg>