<svg width="51" height="51" fill="none" xmlns="http://www.w3.org/2000/svg">
    <g>
        <path d="M49.934,31.608C46.594,45 33.03,53.15 19.636,49.812C6.246,46.472 -1.904,32.907 1.436,19.515C4.774,6.12 18.34,-2.031 31.73,1.308C45.124,4.647 53.274,18.214 49.935,31.608L49.934,31.608Z" style="fill:#f7931a;fill-rule:nonzero;"/>
        <path d="M36.706,21.998C37.204,18.671 34.671,16.883 31.208,15.69L32.331,11.184L29.588,10.5L28.494,14.888C27.774,14.708 27.033,14.538 26.297,14.37L27.398,9.954L24.657,9.271L23.533,13.775C22.948,13.643 22.364,13.506 21.781,13.363L21.784,13.349L18.002,12.405L17.272,15.335C17.272,15.335 19.307,15.801 19.264,15.83C20.375,16.107 20.576,16.842 20.542,17.425L19.262,22.559C19.339,22.579 19.438,22.606 19.548,22.65L19.258,22.578L17.464,29.77C17.328,30.107 16.984,30.613 16.207,30.421C16.234,30.461 14.213,29.924 14.213,29.924L12.852,33.064L16.422,33.954C17.085,34.12 17.736,34.294 18.377,34.458L17.241,39.016L19.981,39.699L21.105,35.19C21.854,35.393 22.581,35.58 23.291,35.757L22.171,40.246L24.914,40.929L26.049,36.379C30.727,37.265 34.244,36.908 35.724,32.678C36.917,29.271 35.664,27.306 33.204,26.025C34.996,25.612 36.346,24.433 36.706,21.998ZM30.439,30.786C29.591,34.192 23.856,32.351 21.997,31.889L23.503,25.851C25.363,26.315 31.325,27.234 30.439,30.786ZM31.288,21.949C30.514,25.047 25.741,23.473 24.192,23.087L25.558,17.61C27.106,17.996 32.093,18.717 31.288,21.949Z" style="fill:#fff;fill-rule:nonzero;"/>
    </g>
</svg>
