<svg width="51" height="51" fill="none" xmlns="http://www.w3.org/2000/svg"><rect x=".684" y=".56" width="50" height="50" rx="25" fill="#031017"/><g clip-path="url(#a)"><path d="M49.934 31.608C46.594 45 33.03 53.15 19.636 49.812c-13.39-3.34-21.54-16.905-18.2-30.297C4.774 6.12 18.34-2.031 31.73 1.308c13.394 3.339 21.544 16.906 18.205 30.3z" fill="#F7931A"/><path d="M36.706 21.998c.498-3.327-2.035-5.115-5.498-6.308l1.123-4.506-2.743-.684-1.094 4.388c-.72-.18-1.461-.35-2.197-.518l1.101-4.416-2.741-.683-1.124 4.504a91.386 91.386 0 0 1-1.752-.412l.003-.014-3.782-.944-.73 2.93s2.035.466 1.992.495c1.111.277 1.312 1.012 1.278 1.595l-1.28 5.134c.077.02.176.047.286.091l-.29-.072-1.794 7.192c-.136.337-.48.843-1.257.651.027.04-1.994-.497-1.994-.497l-1.361 3.14 3.57.89c.663.166 1.314.34 1.955.504l-1.136 4.558 2.74.683 1.124-4.509c.749.203 1.476.39 2.186.567l-1.12 4.489 2.743.683 1.135-4.55c4.678.886 8.195.529 9.675-3.701 1.193-3.407-.06-5.372-2.52-6.653 1.792-.413 3.142-1.592 3.502-4.027zm-6.267 8.788c-.848 3.406-6.583 1.565-8.442 1.103l1.506-6.038c1.86.464 7.822 1.383 6.936 4.935zm.849-8.837c-.774 3.098-5.547 1.524-7.096 1.138l1.366-5.477c1.548.386 6.535 1.107 5.73 4.339z" fill="#fff"/></g><defs><clipPath id="a"><path fill="#fff" transform="translate(.684 .56)" d="M0 0h50v50H0z"/></clipPath></defs></svg>