<svg width="51" height="51" fill="none" xmlns="http://www.w3.org/2000/svg"><rect x=".336" y=".56" width="50" height="50" rx="25" fill="#031017"/><g clip-path="url(#a)"><path d="M25.336 50.56c13.807 0 25-11.193 25-25s-11.193-25-25-25-25 11.192-25 25c0 13.807 11.193 25 25 25z" fill="#0AC18E"/><path d="M33.135 17.165c-1.257-2.849-4.144-3.458-7.678-2.868L24.32 9.894l-2.678.691 1.117 4.391c-.704.178-1.428.33-2.145.533L19.5 11.144l-2.678.691 1.136 4.404c-.578.165-5.406 1.402-5.406 1.402l.736 2.868s1.967-.552 1.948-.508c1.091-.285 1.605.26 1.846.774l3.122 12.07c.038.348-.025.944-.774 1.148.044.025-1.948.5-1.948.5l.292 3.345s4.784-1.225 5.412-1.383l1.149 4.454 2.677-.692-1.148-4.486a76.25 76.25 0 0 0 2.151-.533l1.142 4.46 2.678-.69-1.149-4.449c4.125-1.002 7.037-3.604 6.44-7.582-.38-2.399-3-4.366-5.177-4.588 1.339-1.186 2.018-2.919 1.187-5.184zm-1.288 10.501c.532 3.94-4.943 4.423-6.752 4.899l-1.573-5.895c1.814-.476 7.424-2.474 8.325.996zm-3.3-8.026c.565 3.502-4.118 3.908-5.628 4.295l-1.434-5.349c1.516-.374 5.913-2.189 7.062 1.054z" fill="#fff"/></g><defs><clipPath id="a"><path fill="#fff" transform="translate(.336 .56)" d="M0 0h50v50H0z"/></clipPath></defs></svg>