<svg width="50" height="51" fill="none" xmlns="http://www.w3.org/2000/svg">
    <path d="M25 50.457c13.807 0 25-11.193 25-25s-11.193-25-25-25-25 11.193-25 25 11.193 25 25 25Z" fill="#F3BA2F"/>
    <path fill-rule="evenodd" clip-rule="evenodd" d="m31.487 28.116 3.77 3.76-10.25 10.24-10.241-10.24 3.771-3.76 6.47 6.469 6.48-6.47Zm-6.48-6.48 3.825 3.825-3.826 3.825-3.814-3.815v-.01l.672-.672.325-.325 2.817-2.829Zm-12.896.053 3.771 3.772-3.771 3.76L8.34 25.45l3.771-3.76Zm25.791 0 3.771 3.772-3.771 3.76-3.771-3.771 3.771-3.76ZM25.006 8.794l10.241 10.24-3.771 3.772-6.47-6.48-6.469 6.469-3.771-3.76 10.24-10.241Z" fill="#131415"/>
</svg>
