<svg width="50" height="51" fill="none" xmlns="http://www.w3.org/2000/svg">
    <g clip-path="url(#a)">
        <path d="M25 50.457c13.807 0 25-11.193 25-25s-11.193-25-25-25-25 11.193-25 25 11.193 25 25 25Z" fill="#F3BA2F"/>
        <path d="M18.931 22.963 25 16.894l6.072 6.072 3.531-3.53L25 9.831l-9.6 9.6 3.531 3.531Zm-9.556 2.494 3.531-3.531 3.531 3.531-3.53 3.531-3.532-3.531Zm9.556 2.494L25 34.02l6.072-6.072 3.531 3.53L25 41.081l-9.6-9.6-.005-.005 3.536-3.526Zm14.631-2.494 3.532-3.531 3.531 3.531-3.531 3.531-3.532-3.531Zm-4.98-.003h.002v.003L25 29.041l-3.58-3.578-.006-.006.006-.005.627-.628.305-.305L25 21.873l3.583 3.582-.002-.001Z" fill="#fff"/>
    </g>
    <defs>
        <clipPath id="a">
            <path fill="#fff" transform="translate(0 .457)" d="M0 0h50v50H0z"/>
        </clipPath>
    </defs>
</svg>
