<svg width="50" height="51" fill="none" xmlns="http://www.w3.org/2000/svg">
    <g clip-path="url(#a)">
        <path d="M25 50.457c13.807 0 25-11.193 25-25s-11.193-25-25-25-25 11.193-25 25 11.193 25 25 25Z" fill="#2A5ADA"/>
        <path d="m25.002 8.307-3.15 1.8-8.6 4.95-3.15 1.8v17.15l3.15 1.8 8.65 4.95 3.15 1.8 3.15-1.8 8.5-4.95 3.15-1.8v-17.15l-3.15-1.8-8.6-4.95c.05 0-3.1-1.8-3.1-1.8Zm-8.6 22.1v-9.9l8.6-4.95 8.6 4.95v9.9l-8.6 4.95-8.6-4.95Z" fill="#fff"/>
    </g>
    <defs>
        <clipPath id="a">
            <path fill="#fff" transform="translate(0 .457)" d="M0 0h50v50H0z"/>
        </clipPath>
    </defs>
</svg>
