<svg width="51" height="51" fill="none" xmlns="http://www.w3.org/2000/svg"><rect x=".234" y=".56" width="50" height="50" rx="25" fill="#031017"/><g clip-path="url(#a)"><path d="M25.234 50.56c13.807 0 25-11.193 25-25s-11.193-25-25-25-25 11.192-25 25c0 13.807 11.193 25 25 25z" fill="#2E3148"/><path d="M25.233 40.066c8.011 0 14.506-6.495 14.506-14.506 0-8.012-6.495-14.506-14.506-14.506-8.012 0-14.506 6.494-14.506 14.506s6.494 14.506 14.506 14.506z" fill="#1B1E36"/><path d="M25.285 3.749c-2.698 0-4.887 9.788-4.887 21.862 0 12.074 2.189 21.862 4.887 21.862 2.699 0 4.887-9.788 4.887-21.862 0-12.074-2.188-21.862-4.887-21.862zm.338 42.49c-.309.412-.618.103-.618.103-1.242-1.44-1.864-4.115-1.864-4.115-2.174-6.996-1.656-22.016-1.656-22.016 1.021-11.925 2.88-14.742 3.512-15.367a.386.386 0 0 1 .495-.04c.918.65 1.687 3.369 1.687 3.369 2.273 8.436 2.067 16.358 2.067 16.358.206 6.893-1.139 14.609-1.139 14.609-1.035 5.864-2.484 7.1-2.484 7.1z" fill="#6F7390"/><path d="M44.248 14.732c-1.343-2.342-10.921.631-21.4 6.64C12.37 27.38 4.978 34.15 6.322 36.49c1.342 2.34 10.921-.632 21.4-6.64C38.2 23.842 45.59 17.072 44.248 14.732zM7.561 36.169c-.514-.065-.398-.488-.398-.488.63-1.794 2.639-3.664 2.639-3.664 4.989-5.368 18.276-12.393 18.276-12.393 10.85-5.049 14.22-4.836 15.076-4.6a.386.386 0 0 1 .28.411c-.103 1.12-2.084 3.14-2.084 3.14-6.182 6.172-13.156 9.937-13.156 9.937-5.877 3.61-13.239 6.281-13.239 6.281-5.601 2.019-7.394 1.376-7.394 1.376z" fill="#6F7390"/><path d="M44.202 36.568c1.354-2.335-6.018-9.136-16.46-15.19-10.441-6.053-20.018-9.063-21.371-6.723-1.353 2.339 6.019 9.135 16.466 15.189 10.447 6.054 20.012 9.064 21.365 6.724zM7.268 15.557c-.2-.474.222-.588.222-.588 1.87-.353 4.495.451 4.495.451 7.143 1.627 19.88 9.605 19.88 9.605 9.807 6.862 11.31 9.885 11.536 10.743a.386.386 0 0 1-.214.448c-1.022.469-3.761-.229-3.761-.229-8.442-2.263-15.193-6.41-15.193-6.41-6.065-3.272-12.063-8.306-12.063-8.306-4.558-3.837-4.9-5.709-4.9-5.709l-.002-.005z" fill="#6F7390"/><path d="M25.236 28.131a2.572 2.572 0 1 0 0-5.144 2.572 2.572 0 0 0 0 5.144zM35.78 17.226c.825 0 1.493-.69 1.493-1.543 0-.852-.668-1.543-1.492-1.543s-1.492.69-1.492 1.543c0 .852.668 1.543 1.492 1.543zM11.293 22.473c.824 0 1.491-.69 1.491-1.543 0-.852-.668-1.543-1.491-1.543-.824 0-1.492.69-1.492 1.543 0 .852.668 1.543 1.492 1.543zM22.199 41.403c.824 0 1.492-.691 1.492-1.543 0-.853-.668-1.544-1.492-1.544s-1.492.691-1.492 1.544c0 .852.668 1.543 1.492 1.543z" fill="#B7B9C8"/></g><defs><clipPath id="a"><path fill="#fff" transform="translate(.234 .56)" d="M0 0h50v50H0z"/></clipPath></defs></svg>