<svg shape-rendering="geometricPrecision" text-rendering="geometricPrecision" image-rendering="optimizeQuality" xmlns="http://www.w3.org/2000/svg" viewBox="0 0 50 50" style="enable-background:new 0 0 50 50" xml:space="preserve"><path d="M25 0c13.8 0 25 11.2 25 25S38.8 50 25 50 0 38.8 0 25 11.2 0 25 0z" style="fill:#f5ac37"/><path d="M25.9 26.8h9.5c.2 0 .3 0 .3-.3.1-1 .1-1.9 0-2.9 0-.2-.1-.3-.3-.3H16.5c-.2 0-.3.1-.3.3v2.8c0 .4 0 .4.4.4h9.3zm8.8-6.7v-.2c-.2-.3-.3-.7-.6-1-.3-.5-.7-1-1.2-1.5-.2-.3-.4-.5-.7-.7-1.4-1.2-3-2-4.7-2.4-.9-.2-1.8-.3-2.7-.3h-8.4c-.2 0-.3.1-.3.3v5.5c0 .2 0 .3.3.3h18c.2.1.3.1.3 0zm0 9.9H16.5c-.2 0-.3 0-.3.3v5.4c0 .2 0 .3.3.3h8c.4 0 .8 0 1.1-.1 1.2-.1 2.3-.3 3.4-.8.4-.1.8-.3 1.1-.5h.1c1.9-1 3.4-2.5 4.4-4.4.1.1.2-.1.1-.2zm-21.6 8.9V30.3c0-.2 0-.2-.2-.2H9.5c-.2 0-.3 0-.3-.2v-3h3.6c.2 0 .3 0 .3-.3v-2.9c0-.2 0-.2-.2-.2H9.5c-.2 0-.3 0-.3-.2v-2.7c0-.2 0-.2.2-.2h3.4c.2 0 .3 0 .3-.3v-8.4c0-.2 0-.3.3-.3h11.7c.9 0 1.7.1 2.5.3 1.7.3 3.4.9 4.9 1.8 1 .6 1.9 1.3 2.7 2.1.6.6 1.2 1.3 1.7 2.1s.9 1.6 1.2 2.4c0 .2.2.4.5.3h2.8c.4 0 .4 0 .4.3V23c0 .2-.1.3-.3.3h-2.2c-.2 0-.3 0-.3.3.1 1 .1 1.9 0 2.9 0 .3 0 .3.3.3h2.5c.1.1 0 .3 0 .4v2.4c0 .3-.1.3-.3.3h-3c-.2 0-.4.1-.5.3-.7 1.8-1.8 3.5-3.3 4.8-.5.5-1.1.9-1.7 1.3-.6.4-1.2.7-1.9 1-1.2.5-2.4.9-3.7 1.2-1.2.2-2.4.3-3.7.3l-10.6.1z" style="fill:#fefefd"/></svg>