<svg width="51" height="51" fill="none" xmlns="http://www.w3.org/2000/svg"><rect x=".438" y=".56" width="50" height="50" rx="25" fill="#031017"/><path d="M25.44 48.434c12.634 0 22.875-10.241 22.875-22.874S38.074 2.686 25.44 2.686 2.566 12.926 2.566 25.56c0 12.633 10.241 22.874 22.875 22.874z" fill="#002352"/><path fill-rule="evenodd" clip-rule="evenodd" d="M25.438 4.811c-11.46 0-20.749 9.29-20.749 20.749s9.29 20.748 20.748 20.748c11.46 0 20.749-9.29 20.749-20.748 0-11.46-9.29-20.749-20.748-20.749zm-25 20.749c0-13.807 11.192-25 25-25 13.807 0 25 11.192 25 25 0 13.807-11.193 25-25 25-13.808 0-25-11.193-25-25z" fill="#06C"/><path d="M12.618 19.62h16.153s5.575-.052 1.72 7.139c0 0-2.814 5.627-9.796 5.523l3.762-9.608a.76.76 0 0 0-.688-1.043l-4.95-.083-6.253 15.215s2.085.208 3.23.104l-.624 1.563h2.949a.396.396 0 0 0 .375-.26l.531-1.407 1.251-.104-.73 1.771h2.877a.522.522 0 0 0 .49-.333l.802-2.064s8.754-1.459 12.714-8.545c0 0 5.314-8.232-.938-11.15a12.086 12.086 0 0 0-3.856-1.042l.73-1.803a.352.352 0 0 0-.158-.447.354.354 0 0 0-.166-.043h-2.699l-.834 2.188h-1.146l.646-1.698a.365.365 0 0 0-.333-.49h-2.71l-.833 2.188h-8.42a1.25 1.25 0 0 0-1.105.657l-1.99 3.772z" fill="#fff"/></svg>