<svg width="50" height="51" fill="none" xmlns="http://www.w3.org/2000/svg">
    <g clip-path="url(#a)" fill="#C2A633">
        <path d="M25.6 16.932h-3.573v7.042h5.62v2.948h-5.62v7.042h3.747c.963 0 7.904.109 7.894-8.193-.011-8.302-6.733-8.84-8.069-8.84Z"/>
        <path d="M25 .457c-13.807 0-25 11.193-25 25s11.193 25 25 25 25-11.193 25-25-11.193-25-25-25Zm.982 38.502H16.93V26.923h-3.192v-2.948h3.191V11.936h7.77c1.839 0 14.015-.381 14.015 13.737 0 14.352-12.73 13.285-12.73 13.285Z"/>
    </g>
    <defs>
        <clipPath id="a">
            <path fill="#fff" transform="translate(0 .457)" d="M0 0h50v50H0z"/>
        </clipPath>
    </defs>
</svg>
