<svg width="51" height="51" fill="none" xmlns="http://www.w3.org/2000/svg"><rect x=".133" y=".56" width="50" height="50" rx="25" fill="#031017"/><path d="M25.133 50.56c13.805 0 25-11.195 25-25s-11.195-25-25-25-25 11.194-25 25c.01 13.805 11.195 25 25 25z" fill="#3AB83A"/><path d="M25.133 8.889v12.326l10.41 4.65-10.41-16.976z" fill="#fff" fill-opacity=".602"/><path d="m25.129 8.889-10.41 16.976 10.41-4.65V8.89z" fill="#fff"/><path d="M25.133 33.848v8.37l10.42-14.416-10.42 6.046z" fill="#fff" fill-opacity=".602"/><path d="M25.129 42.219v-8.371l-10.41-6.046 10.41 14.417z" fill="#fff"/><path d="m25.133 31.911 10.41-6.046-10.41-4.65v10.696z" fill="#fff" fill-opacity=".2"/><path d="m14.719 25.865 10.41 6.046V21.216l-10.41 4.65z" fill="#fff" fill-opacity=".602"/></svg>