<svg width="51" height="51" fill="none" xmlns="http://www.w3.org/2000/svg"><rect x=".539" y=".56" width="50" height="50" rx="25" fill="#031017"/><g clip-path="url(#a)"><path d="M25.54 47.854c12.313 0 22.294-9.981 22.294-22.294S37.853 3.266 25.54 3.266 3.246 13.247 3.246 25.56s9.981 22.294 22.294 22.294z" fill="#fff"/><path d="M25.54.56a25 25 0 1 0 25 25 24.929 24.929 0 0 0-24.856-25h-.145zm.423 25.847-2.603 8.777h13.922a.701.701 0 0 1 .727.678v.23l-1.21 4.177a.902.902 0 0 1-.909.666H14.583l3.571-12.167-3.995 1.21.908-2.784 3.995-1.21 5.024-17.07a.914.914 0 0 1 .908-.667h5.388a.702.702 0 0 1 .726.678v.23l-4.237 14.407 3.995-1.21-.848 2.905-4.055 1.15z" fill="#345D9D"/></g><defs><clipPath id="a"><path fill="#fff" transform="translate(.54 .56)" d="M0 0h50v50H0z"/></clipPath></defs></svg>