<svg width="50" height="50" viewBox="0 0 50 50" fill="none" xmlns="http://www.w3.org/2000/svg">
  <path d="M25 0C38.8 0 50 11.2 50 25C50 38.8 38.8 50 25 50C11.2 50 0 38.8 0 25C0 11.2 11.2 0 25 0Z" fill="#4946F3"></path>
  <path d="M25.1 20.7L17.7 16.2L25.1 11.8L32.3 16.3L25.1 20.7Z" fill="#F4BA22"></path>
  <path d="M25 23.5L15.4 17.9V28.2L25 33.8V23.5Z" fill="white"></path>
  <path d="M15.4 17.9L5.89999 23.7V34L15.4 28.2V17.9ZM25 23.5L34.6 17.9V28.2L25 33.8V23.5Z" fill="#BBC4FE"></path>
  <path d="M34.6 17.9L44.1 23.7V34L34.6 28.2V17.9Z" fill="white"></path>
</svg>