<svg width="51" height="51" fill="none" xmlns="http://www.w3.org/2000/svg"><rect x=".582" y=".56" width="50" height="50" rx="25" fill="#031017"/><path fill-rule="evenodd" clip-rule="evenodd" d="M25.268 40.34c7.79 0 14.104-6.315 14.104-14.105 0-7.789-6.314-14.103-14.104-14.103-7.789 0-14.103 6.314-14.103 14.103 0 7.79 6.314 14.104 14.104 14.104zm0 .746c8.202 0 14.851-6.649 14.851-14.85 0-8.202-6.649-14.851-14.85-14.851-8.202 0-14.851 6.649-14.851 14.85 0 8.202 6.649 14.85 14.85 14.85z" fill="#5E12A0"/><path fill-rule="evenodd" clip-rule="evenodd" d="M12.4 26.244c0 7.08 5.73 12.818 12.799 12.818 7.068 0 12.8-5.739 12.8-12.818h.746c0 7.49-6.064 13.564-13.546 13.564-7.482 0-13.547-6.073-13.547-13.564h.747z" fill="url(#a)"/><path fill-rule="evenodd" clip-rule="evenodd" d="m34.391 9.17.214.081c1.029.386 3.469 1.62 5.053 3.514l.17.203-.136.228c-.29.486-.74 1.315-1.136 2.21-.4.902-.73 1.833-.805 2.536l-.743-.08c.09-.824.46-1.844.865-2.76.353-.794.745-1.539 1.041-2.056-1.371-1.535-3.35-2.595-4.364-3.014-1.48 1.291-3.393 2.321-4.196 2.689l-.311-.679c.797-.365 2.757-1.425 4.18-2.718l.168-.153z" fill="#5E12A0"/><path fill-rule="evenodd" clip-rule="evenodd" d="M32.571 8.167c-.51.468-.722 1.206-.759 1.718-.05.705.384 1.17.568 1.294l-.552.828c-.396-.264-1.091-1.038-1.009-2.193.047-.65.312-1.676 1.078-2.38.812-.746 2.06-1.024 3.824-.376 1.698.623 3.332 1.621 4.539 2.725.603.552 1.112 1.142 1.467 1.736.352.591.573 1.22.546 1.838-.044 1.049-.315 1.811-.727 2.34a2.28 2.28 0 0 1-1.432.87c-.428.07-.933.07-1.36.018a3.414 3.414 0 0 1-.605-.122c-.153-.049-.382-.137-.533-.318l.765-.637c-.02-.024-.034-.034-.034-.035 0 0 .027.016.102.04.103.033.249.063.424.084.351.042.76.04 1.078-.013.261-.043.561-.181.81-.5.251-.322.479-.867.517-1.77.016-.356-.112-.791-.406-1.284-.293-.49-.731-1.006-1.285-1.512-1.107-1.013-2.628-1.945-4.209-2.526-1.516-.556-2.342-.253-2.807.175z" fill="#5E12A0"/><path d="M11.707 26.121c.564-2.366 5.129-1.24 10.2-.901 4.453-.62 6.876-2.424 12.512-1.297s5.185 3.269 2.029 3.776c-3.156.507-6.312 2.254-13.3 3.55-6.989 1.297-12.005-2.76-11.44-5.128z" fill="url(#b)"/><defs><linearGradient id="a" x1="38.372" y1="27.616" x2="12.026" y2="27.463" gradientUnits="userSpaceOnUse"><stop stop-color="#F100C9"/><stop offset="1" stop-color="#1D02E5"/></linearGradient><linearGradient id="b" x1="11.664" y1="26.238" x2="38.757" y2="26.085" gradientUnits="userSpaceOnUse"><stop stop-color="#030293"/><stop offset="1" stop-color="#BC00C6"/></linearGradient></defs></svg>