<svg width="51" height="51" fill="none" xmlns="http://www.w3.org/2000/svg"><rect x=".09" y=".56" width="50" height="50" rx="25" fill="#031017"/><g clip-path="url(#a)"><path d="M32.79 20.28c-.55-.322-1.258-.322-1.886 0l-4.401 2.66-2.986 1.692-4.323 2.66c-.55.322-1.257.322-1.886 0l-3.379-2.096c-.55-.322-.943-.967-.943-1.692v-4.03a2 2 0 0 1 .943-1.692l3.38-2.015c.55-.323 1.257-.323 1.885 0l3.38 2.095c.55.323.942.967.942 1.693v2.66l2.987-1.774v-2.74a2 2 0 0 0-.943-1.693l-6.287-3.788c-.55-.322-1.257-.322-1.886 0l-6.444 3.869c-.629.322-.943.967-.943 1.612v7.576a2 2 0 0 0 .943 1.693l6.365 3.788c.55.322 1.258.322 1.886 0l4.323-2.58 2.986-1.773 4.322-2.579c.55-.322 1.257-.322 1.886 0l3.38 2.015c.55.323.942.967.942 1.693v4.03a2 2 0 0 1-.943 1.692l-3.3 2.015c-.55.322-1.258.322-1.886 0l-3.38-2.015c-.55-.322-.943-.967-.943-1.692v-2.58l-2.986 1.774v2.66a2 2 0 0 0 .943 1.692l6.366 3.788c.55.322 1.257.322 1.885 0l6.366-3.788c.55-.322.943-.967.943-1.693v-7.656a2 2 0 0 0-.943-1.693l-6.366-3.788z" fill="#8247E5"/></g><defs><clipPath id="a"><path fill="#fff" transform="translate(10 12.06)" d="M0 0h30.177v27H0z"/></clipPath></defs></svg>