<svg xmlns="http://www.w3.org/2000/svg" width="500" height="500" style="enable-background:new 0 0 500 500" xml:space="preserve">
    <circle style="fill:#0073be" cx="250" cy="250" r="250"/>
    <path style="fill:#fff" d="M231.3 250.1c-22.8-23-22.8-60.3.2-83.2 22.9-22.9 60.2-23 83.2-.2l53.1-53.1c-52.3-52.1-137.2-52.1-189.4.2-52.2 52.2-52.3 137.1-.2 189.4l53.1-53.1zM268.7 249.9c22.8 23 22.8 60.3-.2 83.2-22.9 22.9-60.2 23-83.2.2l-53.1 53.1c52.3 52.1 137.2 52.1 189.4-.2 52.2-52.2 52.3-137.1.2-189.4l-53.1 53.1z"/>
</svg>
