<svg width="51" height="51" fill="none" xmlns="http://www.w3.org/2000/svg"><defs><linearGradient id="b" x1="37.415" y1="10.876" x2="20.305" y2="42.985" gradientUnits="userSpaceOnUse"><stop stop-color="#00FFA3"/><stop offset="1" stop-color="#DC1FFF"/></linearGradient><linearGradient id="c" x1="30.17" y1="7.015" x2="13.059" y2="39.123" gradientUnits="userSpaceOnUse"><stop stop-color="#00FFA3"/><stop offset="1" stop-color="#DC1FFF"/></linearGradient><linearGradient id="d" x1="33.77" y1="8.933" x2="16.659" y2="41.042" gradientUnits="userSpaceOnUse"><stop stop-color="#00FFA3"/><stop offset="1" stop-color="#DC1FFF"/></linearGradient><clipPath id="a"><path fill="#fff" transform="translate(10.191 13.76)" d="M0 0h30v24H0z"/></clipPath></defs><rect x=".191" y=".56" width="50" height="50" rx="25" fill="#031017"/><g clip-path="url(#a)"><path d="M15.066 32.078a.972.972 0 0 1 .694-.293h23.943c.437 0 .656.54.347.855l-4.73 4.828a.972.972 0 0 1-.694.292H10.683c-.437 0-.656-.539-.347-.854l4.73-4.828z" fill="url(#b)"/><path d="M15.066 14.052a.998.998 0 0 1 .694-.292h23.943c.437 0 .656.539.347.854l-4.73 4.828a.972.972 0 0 1-.694.293H10.683c-.437 0-.656-.54-.347-.855l4.73-4.828z" fill="url(#c)"/><path d="M35.32 23.007a.972.972 0 0 0-.694-.292H10.683c-.437 0-.656.539-.347.855l4.73 4.827c.181.185.43.293.694.293h23.943c.437 0 .656-.54.347-.855l-4.73-4.828z" fill="url(#d)"/></g></svg>