<svg width="50" height="50" fill="none" xmlns="http://www.w3.org/2000/svg">
    <g clip-path="url(#a)">
        <path d="M25 0c13.806 0 25 11.194 25 25S38.806 50 25 50 0 38.81 0 25 11.192 0 25 0Z" fill="#53AE94"/>
        <path d="M28.086 21.669v-3.72h8.505v-5.666H13.433v5.667h8.505v3.716c-6.912.317-12.11 1.686-12.11 3.326 0 1.64 5.2 3.01 12.11 3.329v11.912h6.15V28.32c6.9-.319 12.087-1.687 12.087-3.325 0-1.639-5.187-3.007-12.087-3.325m0 5.64v-.002c-.173.01-1.065.064-3.05.064-1.587 0-2.703-.045-3.097-.065v.005c-6.107-.27-10.665-1.334-10.665-2.607 0-1.272 4.559-2.334 10.665-2.605v4.152c.4.028 1.544.095 3.123.095 1.897 0 2.85-.079 3.025-.095V22.1c6.095.271 10.643 1.336 10.643 2.604s-4.55 2.333-10.643 2.604" fill="#fff"/>
    </g>
    <defs>
        <clipPath id="a">
            <path fill="#fff" d="M0 0h50v50H0z"/>
        </clipPath>
    </defs>
</svg>
