<svg xmlns="http://www.w3.org/2000/svg" viewBox="0 0 50 50" style="enable-background:new 0 0 50 50" xml:space="preserve"><circle cx="25" cy="25" r="25" style="fill:#f7591b"/><path d="M25 41.5c-.1 0-.2 0-.3-.1L18 37.9c-.2-.1-.3-.3-.3-.5v-2.2c0 .1 5.8 2.9 7.1 3.5.1 0 .2.1.2.1v-4.4c-.1 0-.2 0-.2-.1l-8.7-4.4c-.9-.5-1.5-1.4-1.5-2.5v-2c0-.4.4-.6.7-.5l9.6 3.1h.2V6.3c-.1 0-.2 0-.3.1l-2.5 1.5c-.2.1-.3.3-.3.5V13c0 .2-.1.4-.2.5L19.5 15c-.4.2-.8 0-.8-.5v-4c0-.4-.5-.7-.9-.4l-2 1.4c-.1.1-.2.3-.2.4v4.8c0 .2-.1.4-.2.5l-1.9 1.3c-.4.2-.9 0-.9-.5v-3.6c0-.4-.5-.7-.9-.5l-2.3 1.6c-.2.1-.2.3-.2.5v5.2c0 .2.1.4.2.5l1.8 1.2c.2.1.2.3.2.5v14.9c0 .2.1.4.3.5l6.6 4.1c.3.1.4-.2.4-.2v-.9s0-.1.1-.1h.2l5.8 2.8c.1 0 .2.1.2.1v-3.1z" style="fill:#fefefe"/><path d="M25 41.5c.1 0 .2 0 .3-.1l6.8-3.5c.2-.1.3-.3.3-.5v-2.2c0 .1-5.8 2.9-7.1 3.5-.1 0-.2.1-.2.1v-4.4c.1 0 .2 0 .2-.1l8.7-4.4c.9-.5 1.5-1.4 1.5-2.5v-2c0-.4-.4-.6-.7-.5L25.2 28H25V6.3c.1 0 .2 0 .3.1l2.5 1.5c.1.1.2.3.2.5V13c0 .2.1.4.2.5l2.3 1.5c.4.2.8 0 .8-.5v-4c0-.4.5-.7.9-.4l2 1.4c.1.1.2.3.2.4v4.8c0 .2.1.4.2.5l1.9 1.3c.4.2.9 0 .9-.5v-3.6c0-.4.5-.7.9-.5l2.3 1.6c.2.1.2.3.2.5v5.2c0 .2-.1.4-.2.5l-1.8 1.2c-.2.1-.2.3-.2.5v14.9c0 .2-.1.4-.3.5l-6.6 4.1c-.3.1-.4-.2-.4-.2v-.9s0-.1-.1-.1H31l-5.8 2.8c-.1 0-.2.1-.2.1v-3.1z" style="fill:#fce4d6"/></svg>