<svg width="50" height="51" fill="none" xmlns="http://www.w3.org/2000/svg">
    <g clip-path="url(#a)">
        <path d="M25 50.457a24.94 24.94 0 0 0 25-25 24.94 24.94 0 0 0-25-25 24.94 24.94 0 0 0-25 25 24.94 24.94 0 0 0 25 25Z" fill="#2775CA"/>
        <path d="M31.876 29.415c0-3.646-2.187-4.896-6.562-5.416-3.125-.417-3.75-1.25-3.75-2.709s1.041-2.396 3.125-2.396c1.875 0 2.916.625 3.437 2.188.104.312.417.52.73.52h1.666c.417 0 .73-.312.73-.729v-.104a5.204 5.204 0 0 0-4.688-4.27v-2.5c0-.417-.313-.73-.834-.834h-1.562c-.417 0-.73.313-.834.834v2.395c-3.125.417-5.104 2.5-5.104 5.105 0 3.437 2.084 4.791 6.459 5.312 2.916.52 3.854 1.146 3.854 2.813 0 1.666-1.459 2.812-3.438 2.812-2.708 0-3.646-1.146-3.958-2.709-.104-.416-.416-.625-.729-.625h-1.771a.712.712 0 0 0-.729.73v.104c.416 2.604 2.083 4.479 5.52 5v2.5c0 .416.313.729.834.833h1.563c.416 0 .729-.312.833-.833v-2.5c3.125-.521 5.208-2.709 5.208-5.521Z" fill="#fff"/>
        <path d="M19.688 40.353c-8.125-2.916-12.292-11.979-9.271-20 1.562-4.375 5-7.708 9.27-9.27.417-.209.626-.521.626-1.043V8.582c0-.416-.209-.729-.625-.833-.105 0-.313 0-.417.104C9.375 10.978 3.958 21.499 7.083 31.395c1.875 5.833 6.355 10.312 12.188 12.187.417.209.833 0 .937-.416.105-.104.105-.209.105-.417V41.29c0-.312-.313-.728-.625-.937Zm11.041-32.5c-.416-.208-.833 0-.937.417-.104.104-.104.208-.104.417v1.458c0 .417.312.833.625 1.042 8.125 2.916 12.291 11.979 9.27 20-1.562 4.375-5 7.708-9.27 9.27-.417.209-.625.521-.625 1.042v1.458c0 .417.208.73.625.834.104 0 .312 0 .416-.104 9.896-3.125 15.313-13.646 12.188-23.542-1.875-5.938-6.459-10.417-12.188-12.292Z" fill="#fff"/>
    </g>
    <defs>
        <clipPath id="a">
            <path fill="#fff" transform="translate(0 .457)" d="M0 0h50v50H0z"/>
        </clipPath>
    </defs>
</svg>
