<svg width="51" height="51" fill="none" xmlns="http://www.w3.org/2000/svg"><metadata><?xpacket begin="﻿" id="W5M0MpCehiHzreSzNTczkc9d"?>
<x:xmpmeta xmlns:x="adobe:ns:meta/" x:xmptk="Adobe XMP Core 7.1-c000 79.4d2f597, 2021/09/01-20:51:22        ">
   <rdf:RDF xmlns:rdf="http://www.w3.org/1999/02/22-rdf-syntax-ns#">
      <rdf:Description rdf:about=""
            xmlns:xmp="http://ns.adobe.com/xap/1.0/"
            xmlns:xmpMM="http://ns.adobe.com/xap/1.0/mm/"
            xmlns:stEvt="http://ns.adobe.com/xap/1.0/sType/ResourceEvent#">
         <xmp:MetadataDate>2022-09-12T14:56:43+02:00</xmp:MetadataDate>
         <xmpMM:InstanceID>xmp.iid:7a1650a8-9491-ee4e-81a0-640e87003cd2</xmpMM:InstanceID>
         <xmpMM:DocumentID>xmp.did:c45dd8b4-f2cb-5842-918f-e1f4dec0e3ce</xmpMM:DocumentID>
         <xmpMM:OriginalDocumentID>xmp.did:c45dd8b4-f2cb-5842-918f-e1f4dec0e3ce</xmpMM:OriginalDocumentID>
         <xmpMM:History>
            <rdf:Seq>
               <rdf:li>
                  <rdf:Description>
                     <stEvt:action>saved</stEvt:action>
                     <stEvt:instanceID>xmp.iid:c45dd8b4-f2cb-5842-918f-e1f4dec0e3ce</stEvt:instanceID>
                     <stEvt:when>2022-09-12T14:56:42+02:00</stEvt:when>
                     <stEvt:softwareAgent>Adobe Bridge 2022 (Windows)</stEvt:softwareAgent>
                     <stEvt:changed>/metadata</stEvt:changed>
                  </rdf:Description>
               </rdf:li>
               <rdf:li>
                  <rdf:Description>
                     <stEvt:action>saved</stEvt:action>
                     <stEvt:instanceID>xmp.iid:7a1650a8-9491-ee4e-81a0-640e87003cd2</stEvt:instanceID>
                     <stEvt:when>2022-09-12T14:56:43+02:00</stEvt:when>
                     <stEvt:softwareAgent>Adobe Bridge 2022 (Windows)</stEvt:softwareAgent>
                     <stEvt:changed>/metadata</stEvt:changed>
                  </rdf:Description>
               </rdf:li>
            </rdf:Seq>
         </xmpMM:History>
      </rdf:Description>
   </rdf:RDF>
</x:xmpmeta>
                                                                                                    
                                                                                                    
                                                                                                    
                                                                                                    
                                                                                                    
                                                                                                    
                                                                                                    
                                                                                                    
                                                                                                    
                                                                                                    
                                                                                                    
                                                                                                    
                                                                                                    
                                                                                                    
                                                                                                    
                                                             
<?xpacket end="w"?></metadata>
<rect x=".641" y=".56" width="50" height="50" rx="25" fill="#031017"/><g clip-path="url(#a)"><path d="M25.902 46.511c-11.392 0-20.691-9.308-20.691-20.69 0-11.393 9.309-20.692 20.691-20.692 11.392 0 20.691 9.309 20.691 20.691 0 11.392-9.299 20.691-20.69 20.691z" fill="url(#b)"/><path d="M25.64 50.56c-13.75 0-25-11.25-25-25s11.25-25 25-25 25 11.25 25 25-11.25 25-25 25zm0-44.442c-10.69 0-19.44 8.75-19.44 19.442C6.2 36.25 14.95 45 25.64 45c10.692 0 19.442-8.75 19.442-19.44 0-10.692-8.75-19.442-19.441-19.442z" fill="#000"/><path d="M25.06 32.331h10.834v5.417h-6.392v4.583h-5.56V37.89h-6.666c0-1.809-.274-3.608.142-5.275.142-.833 1.108-1.667 1.809-2.5 2.083-2.5 4.167-5 6.392-7.5.833-.975 1.667-1.809 2.642-2.916H17.845v-5.417h6.107V9.699h5.417v4.44h6.667c0 1.809.274 3.608-.142 5.275-.142.833-1.108 1.666-1.81 2.5-2.082 2.5-4.166 5-6.391 7.5-.834.976-1.667 1.942-2.633 2.917z" fill="#000"/></g><defs><linearGradient id="b" x1="11.695" y1="40.009" x2="40.259" y2="11.445" gradientUnits="userSpaceOnUse"><stop stop-color="#CF8724"/><stop offset="1" stop-color="#FDCE58"/></linearGradient><clipPath id="a"><path fill="#fff" transform="translate(.64 .56)" d="M0 0h50v50H0z"/></clipPath></defs></svg>