<svg width="51" height="51" fill="none" xmlns="http://www.w3.org/2000/svg"><rect x=".988" y=".56" width="50" height="50" rx="25" fill="#031017"/><g clip-path="url(#a)"><path d="M26.16.56a25.008 25.008 0 1 1-.326 50.016A25.008 25.008 0 0 1 26.159.56z" fill="#2B61D1"/><path d="m29.141 40.075-2.866 1.628-6.154-3.55 2.8-1.628h.114l6.106 3.55zM40.146 17.704v3.338l-6.056-3.5-1.628-.945-1.629.944-7.717 4.461-1.628.945v2.035l-3.012-1.791-1.628-.944-1.628.944-2.833 1.612v-7.099L26.258 9.71l13.888 7.994z" fill="#fff"/><path d="M40.148 24.835v8.906l-7.7 4.445-7.702-4.445v-8.906l7.717-4.444 7.685 4.444zM21.276 28.596v5.129l-4.445 2.556-4.444-2.556v-5.129l4.428-2.556 4.461 2.556z" fill="#fff"/></g><defs><clipPath id="a"><path fill="#fff" transform="translate(.988 .56)" d="M0 0h50v50H0z"/></clipPath></defs></svg>