<svg width="69" height="69" viewBox="0 0 69 69" fill="none" xmlns="http://www.w3.org/2000/svg">
<path d="M21.5 2H7C4.23858 2 2 4.23858 2 7V21.5" stroke="#20AFFF" stroke-width="3" stroke-linecap="round" stroke-linejoin="round"/>
<path d="M67 21.5L67 7C67 4.23858 64.7614 2 62 2L47.5 2" stroke="#20AFFF" stroke-width="3" stroke-linecap="round" stroke-linejoin="round"/>
<path d="M47.5 67L62 67C64.7614 67 67 64.7614 67 62L67 47.5" stroke="#20AFFF" stroke-width="3" stroke-linecap="round" stroke-linejoin="round"/>
<path d="M2 47.5L2 62C2 64.7614 4.23858 67 7 67L21.5 67" stroke="#20AFFF" stroke-width="3" stroke-linecap="round" stroke-linejoin="round"/>
<mask id="path-5-inside-1_79_4208" fill="white">
<rect x="43.6001" y="13.6992" width="11.7" height="11.7" rx="2"/>
</mask>
<rect x="43.6001" y="13.6992" width="11.7" height="11.7" rx="2" stroke="#20AFFF" stroke-width="6" mask="url(#path-5-inside-1_79_4208)"/>
<mask id="path-6-inside-2_79_4208" fill="white">
<rect x="43.6001" y="42.2998" width="11.7" height="11.7" rx="2"/>
</mask>
<rect x="43.6001" y="42.2998" width="11.7" height="11.7" rx="2" stroke="#20AFFF" stroke-width="6" mask="url(#path-6-inside-2_79_4208)"/>
<mask id="path-7-inside-3_79_4208" fill="white">
<rect x="13.7001" y="42.2998" width="11.7" height="11.7" rx="2"/>
</mask>
<rect x="13.7001" y="42.2998" width="11.7" height="11.7" rx="2" stroke="#20AFFF" stroke-width="6" mask="url(#path-7-inside-3_79_4208)"/>
<mask id="path-8-inside-4_79_4208" fill="white">
<rect x="13.7001" y="13.6992" width="11.7" height="11.7" rx="2"/>
</mask>
<rect x="13.7001" y="13.6992" width="11.7" height="11.7" rx="2" stroke="#20AFFF" stroke-width="6" mask="url(#path-8-inside-4_79_4208)"/>
</svg>
