<svg width="59" height="69" viewBox="0 0 59 69" fill="none" xmlns="http://www.w3.org/2000/svg">
<path d="M56.3502 49.4109C52.3377 44.5 49.5049 42 49.5049 28.4609C49.5049 16.0625 43.1736 11.6453 37.9627 9.5C37.2705 9.21562 36.6189 8.5625 36.408 7.85156C35.4939 4.74062 32.9314 2 29.5252 2C26.1189 2 23.5549 4.74219 22.6502 7.85469C22.4392 8.57344 21.7877 9.21562 21.0955 9.5C15.8783 11.6484 9.55331 16.05 9.55331 28.4609C9.5455 42 6.71268 44.5 2.70019 49.4109C1.03769 51.4453 2.49394 54.5 5.40175 54.5H53.6642C56.5564 54.5 58.0033 51.4359 56.3502 49.4109Z" stroke="#20AFFF" stroke-width="3" stroke-linecap="round" stroke-linejoin="round"/>
<path d="M39.5251 54.499V56.999C39.5251 59.6512 38.4716 62.1947 36.5962 64.0701C34.7208 65.9454 32.1773 66.999 29.5251 66.999C26.873 66.999 24.3294 65.9454 22.4541 64.0701C20.5787 62.1947 19.5251 59.6512 19.5251 56.999V54.499" stroke="#20AFFF" stroke-width="3" stroke-linecap="round" stroke-linejoin="round"/>
</svg>
